<?xml version="1.0" standalone="no"?>
<!DOCTYPE svg PUBLIC "-//W3C//DTD SVG 20010904//EN"
 "http://www.w3.org/TR/2001/REC-SVG-20010904/DTD/svg10.dtd">
<svg version="1.0" xmlns="http://www.w3.org/2000/svg"
 width="216.000000pt" height="233.000000pt" viewBox="0 0 216.000000 233.000000"
 preserveAspectRatio="xMidYMid meet">

<g transform="translate(0.000000,233.000000) scale(0.100000,-0.100000)"
fill="#000000" stroke="none">
<path d="M560 2123 l0 -210 173 -217 172 -216 168 0 c132 0 167 3 161 13 -7
11 -645 808 -666 832 -4 5 -8 -86 -8 -202z"/>
<path d="M1390 2074 c-113 -140 -213 -266 -223 -280 l-19 -24 170 0 169 0 56
71 57 72 0 208 c0 115 -1 209 -2 209 -2 0 -95 -115 -208 -256z"/>
<path d="M10 1755 c0 -3 104 -135 230 -293 127 -158 230 -291 230 -297 0 -6
-103 -139 -230 -297 -127 -158 -230 -290 -230 -293 0 -3 74 -5 165 -5 l165 0
190 237 190 238 0 121 0 122 -187 233 -188 234 -167 3 c-93 1 -168 0 -168 -3z"/>
<path d="M1630 1523 l-190 -238 0 -121 0 -120 188 -235 187 -234 168 -3 c92
-1 167 0 167 3 0 3 -103 135 -230 293 -126 158 -230 291 -230 297 0 6 104 139
230 297 127 158 230 290 230 293 0 3 -74 5 -165 5 l-165 0 -190 -237z"/>
<path d="M733 634 l-173 -217 0 -211 c1 -210 1 -211 20 -186 136 178 488 605
499 605 11 0 380 -445 501 -605 19 -25 19 -23 20 186 l0 211 -172 217 -173
216 -175 0 -175 0 -172 -216z"/>
</g>
</svg>
